<svg xmlns="http://www.w3.org/2000/svg" xmlns:oryx="http://oryx-editor.org" id="_FE91A9D2-AE10-4A8D-92A2-E266BF50BEB9" width="774" height="260" xmlns:xlink="http://www.w3.org/1999/xlink" xmlns:svg="http://www.w3.org/2000/svg"><defs><marker id="_BFFBEABD-D73C-48E6-B457-8703F66DD60Cstart" refX="1" refY="5" markerUnits="userSpaceOnUse" markerWidth="17" markerHeight="11" orient="auto" fill="#000000" stroke="#000000"> 	  		<path id="_BFFBEABD-D73C-48E6-B457-8703F66DD60Cconditional" d="M 0 5 L 8 0 L 16 5 L 8 10 L 0 5" fill="white" stroke="#000000" stroke-width="1" display="none"/> 			<path id="_BFFBEABD-D73C-48E6-B457-8703F66DD60Cdefault" d="M 5 0 L 11 10" fill="white" stroke="#000000" stroke-width="1" display="none"/> 	  	</marker><marker id="_BFFBEABD-D73C-48E6-B457-8703F66DD60Cend" refX="15" refY="6" markerUnits="userSpaceOnUse" markerWidth="15" markerHeight="12" orient="auto" fill="#000000" stroke="#000000"> 	  		<path id="_BFFBEABD-D73C-48E6-B457-8703F66DD60Cframe2" d="M 0 1 L 15 6 L 0 11z" fill="#000000" stroke="#000000" stroke-linejoin="round" stroke-width="2"/> 	  	</marker><marker id="_A1D87AA4-78BF-41CC-A92C-EE0F9AFB1228start" refX="1" refY="5" markerUnits="userSpaceOnUse" markerWidth="17" markerHeight="11" orient="auto" fill="#000000" stroke="#000000"> 	  		<path id="_A1D87AA4-78BF-41CC-A92C-EE0F9AFB1228conditional" d="M 0 5 L 8 0 L 16 5 L 8 10 L 0 5" fill="white" stroke="#000000" stroke-width="1" display="none"/> 			<path id="_A1D87AA4-78BF-41CC-A92C-EE0F9AFB1228default" d="M 5 0 L 11 10" fill="white" stroke="#000000" stroke-width="1" display="none"/> 	  	</marker><marker id="_A1D87AA4-78BF-41CC-A92C-EE0F9AFB1228end" refX="15" refY="6" markerUnits="userSpaceOnUse" markerWidth="15" markerHeight="12" orient="auto" fill="#000000" stroke="#000000"> 	  		<path id="_A1D87AA4-78BF-41CC-A92C-EE0F9AFB1228frame2" d="M 0 1 L 15 6 L 0 11z" fill="#000000" stroke="#000000" stroke-linejoin="round" stroke-width="2"/> 	  	</marker><marker id="_EFB52BC1-4687-438F-85F7-CE96E135E433start" refX="1" refY="5" markerUnits="userSpaceOnUse" markerWidth="17" markerHeight="11" orient="auto" fill="#000000" stroke="#000000"> 	  		<path id="_EFB52BC1-4687-438F-85F7-CE96E135E433conditional" d="M 0 5 L 8 0 L 16 5 L 8 10 L 0 5" fill="white" stroke="#000000" stroke-width="1" display="none"/> 			<path id="_EFB52BC1-4687-438F-85F7-CE96E135E433default" d="M 5 0 L 11 10" fill="white" stroke="#000000" stroke-width="1" display="none"/> 	  	</marker><marker id="_EFB52BC1-4687-438F-85F7-CE96E135E433end" refX="15" refY="6" markerUnits="userSpaceOnUse" markerWidth="15" markerHeight="12" orient="auto" fill="#000000" stroke="#000000"> 	  		<path id="_EFB52BC1-4687-438F-85F7-CE96E135E433frame2" d="M 0 1 L 15 6 L 0 11z" fill="#000000" stroke="#000000" stroke-linejoin="round" stroke-width="2"/> 	  	</marker><marker id="_0694D6BF-AAA1-48DF-AF03-3E68F54219B3start" refX="1" refY="5" markerUnits="userSpaceOnUse" markerWidth="17" markerHeight="11" orient="auto" fill="#000000" stroke="#000000"> 	  		<path id="_0694D6BF-AAA1-48DF-AF03-3E68F54219B3conditional" d="M 0 5 L 8 0 L 16 5 L 8 10 L 0 5" fill="white" stroke="#000000" stroke-width="1" display="none"/> 			<path id="_0694D6BF-AAA1-48DF-AF03-3E68F54219B3default" d="M 5 0 L 11 10" fill="white" stroke="#000000" stroke-width="1" display="none"/> 	  	</marker><marker id="_0694D6BF-AAA1-48DF-AF03-3E68F54219B3end" refX="15" refY="6" markerUnits="userSpaceOnUse" markerWidth="15" markerHeight="12" orient="auto" fill="#000000" stroke="#000000"> 	  		<path id="_0694D6BF-AAA1-48DF-AF03-3E68F54219B3frame2" d="M 0 1 L 15 6 L 0 11z" fill="#000000" stroke="#000000" stroke-linejoin="round" stroke-width="2"/> 	  	</marker></defs><g stroke="none" font-family="Verdana, sans-serif" font-size-adjust="none" font-style="normal" font-variant="normal" font-weight="normal" line-heigth="normal" font-size="12"><g class="stencils" transform="translate(16, 16)"><g class="me"/><g class="children"><g id="_E036A5C3-C671-405B-A003-7E5F3FC5574E" bpmn2nodeid="processStartEvent"><g class="stencils" transform="translate(120, 165)"><g class="me"><g pointer-events="fill" id="_E036A5C3-C671-405B-A003-7E5F3FC5574E">        <defs id="_E036A5C3-C671-405B-A003-7E5F3FC5574E__E036A5C3-C671-405B-A003-7E5F3FC5574E_5"> 		<radialGradient id="_E036A5C3-C671-405B-A003-7E5F3FC5574Ebackground" cx="10%" cy="10%" r="100%" fx="10%" fy="10%"> 			<stop offset="0%" stop-color="#ffffff" stop-opacity="1" id="_E036A5C3-C671-405B-A003-7E5F3FC5574E__E036A5C3-C671-405B-A003-7E5F3FC5574E_6"/> 			<stop id="_E036A5C3-C671-405B-A003-7E5F3FC5574Efill_el" offset="100%" stop-color="#9acd32" stop-opacity="1"/> 		</radialGradient> 	</defs> 	     <circle id="_E036A5C3-C671-405B-A003-7E5F3FC5574Ebg_frame" cx="15" cy="15" r="15" stroke="#000000" fill="url(#_E036A5C3-C671-405B-A003-7E5F3FC5574Ebackground) white" stroke-width="1" style="stroke-dasharray: 5.5, 3"/>      <circle id="_E036A5C3-C671-405B-A003-7E5F3FC5574Eframe" cx="15" cy="15" r="15" stroke="#000000" fill="none" stroke-width="1" display="inherit"/>  	<text font-size="11" id="_E036A5C3-C671-405B-A003-7E5F3FC5574Etext_name" x="15" y="32" oryx:align="top center" stroke="black" stroke-width="0pt" letter-spacing="-0.01px" fill="#000000" text-anchor="middle" transform="rotate(0 15 32)" visibility="inherit" oryx:fontSize="11"/>   </g></g><g class="children" style="overflow:hidden"/><g class="edge"/></g><g class="controls"><g class="dockers"/><g class="magnets" transform="translate(120, 165)"><g pointer-events="all" display="none" transform="translate(7, 7)"><circle cx="8" cy="8" r="4" stroke="none" fill="red" fill-opacity="0.3"/></g></g></g></g><g id="_0DCE4D4A-79D7-4459-875A-6DEF7FB5B006" bpmn2nodeid="_F3AD3B36-DB5D-44CD-AA62-BFE769B9A13A"><g class="stencils" transform="translate(510, 135)"><g class="me"><g pointer-events="fill" oryx:minimumSize="50 40" id="_0DCE4D4A-79D7-4459-875A-6DEF7FB5B006">   	<defs id="_0DCE4D4A-79D7-4459-875A-6DEF7FB5B006__0DCE4D4A-79D7-4459-875A-6DEF7FB5B006_17"> 		<radialGradient id="_0DCE4D4A-79D7-4459-875A-6DEF7FB5B006background" cx="10%" cy="10%" r="100%" fx="10%" fy="10%"> 			<stop offset="0%" stop-color="#ffffff" stop-opacity="1" id="_0DCE4D4A-79D7-4459-875A-6DEF7FB5B006__0DCE4D4A-79D7-4459-875A-6DEF7FB5B006_18"/> 			<stop id="_0DCE4D4A-79D7-4459-875A-6DEF7FB5B006fill_el" offset="100%" stop-color="#fafad2" stop-opacity="1"/> 		</radialGradient> 		<radialGradient id="_0DCE4D4A-79D7-4459-875A-6DEF7FB5B006borderbackground" cx="10%" cy="10%" r="100%" fx="10%" fy="10%"> 			<stop offset="0%" stop-color="#ffffff" stop-opacity="1" id="_0DCE4D4A-79D7-4459-875A-6DEF7FB5B006__0DCE4D4A-79D7-4459-875A-6DEF7FB5B006_19"/> 			<stop id="_0DCE4D4A-79D7-4459-875A-6DEF7FB5B006fill_border" offset="100%" stop-color="#000000" stop-opacity="1" stroke="#000000"/> 		</radialGradient> 	</defs> 	 	<rect id="_0DCE4D4A-79D7-4459-875A-6DEF7FB5B006text_frame" oryx:anchors="bottom top right left" x="1" y="1" width="94" height="79" rx="10" ry="10" stroke="none" stroke-width="0" fill="none"/> 	<rect id="_0DCE4D4A-79D7-4459-875A-6DEF7FB5B006bg_frame" oryx:resize="vertical horizontal" x="0" y="0" width="100" height="80" rx="10" ry="10" stroke="#000000" stroke-width="1" fill="url(#_0DCE4D4A-79D7-4459-875A-6DEF7FB5B006background) #ffffcc"/> 		<text font-size="12" id="_0DCE4D4A-79D7-4459-875A-6DEF7FB5B006text_name" x="50" y="40" oryx:align="middle center" oryx:fittoelem="text_frame" stroke="black" text-anchor="middle" stroke-width="0pt" letter-spacing="-0.01px" fill="#000000" transform="rotate(0 50 40)" visibility="inherit" oryx:fontSize="12"><tspan x="50" y="40" dy="5">User2</tspan></text>     <g id="_0DCE4D4A-79D7-4459-875A-6DEF7FB5B006manualTask" transform="scale(0.7,0.7) translate(8,8)" display="none">     	<path oryx:anchors="top left" id="_0DCE4D4A-79D7-4459-875A-6DEF7FB5B006frame" style="opacity:1;fill:none;fill-opacity:1;stroke-width:1" d="M0.5,3.751l4.083-3.25c0,0,11.166,0.083,12.083,0.083s-2.417,2.917-1.5,2.917     s11.667,0,12.584,0c1.166,1.708-0.168,3.167-0.834,3.667s0.875,1.917-1,4.417c-0.75,0.25,0.75,1.875-1.333,3.333     c-1.167,0.583,0.583,1.542-1.25,2.833c-1.167,0-20.833,0.083-20.833,0.083l-2-1.333V3.751z" stroke="#000000"/> 		<path id="_0DCE4D4A-79D7-4459-875A-6DEF7FB5B006frame2" oryx:anchors="top left" style="opacity:1;fill:none;stroke-width:2" d="M 13.5 7 L 27 7" stroke="#000000"/> 		<path id="_0DCE4D4A-79D7-4459-875A-6DEF7FB5B006frame3" oryx:anchors="top left" style="opacity:1;fill:none;stroke-width:2" d="M 13.5 11 L 26 11" stroke="#000000"/> 		<path id="_0DCE4D4A-79D7-4459-875A-6DEF7FB5B006frame4" oryx:anchors="top left" style="opacity:1;fill:none;stroke-width:1.5" d="M 14 14.5 L 25 14.5" stroke="#000000"/> 		<path id="_0DCE4D4A-79D7-4459-875A-6DEF7FB5B006frame5" oryx:anchors="top left" style="opacity:1;fill:none;stroke-width:1.5" d="M 8.2 3.1 L 15 3.1" stroke="#000000"/> 	</g> 	 	<g id="_0DCE4D4A-79D7-4459-875A-6DEF7FB5B006businessRuleTask" transform="scale(0.7,0.7) translate(8,8)" display="none"> 		<rect id="_0DCE4D4A-79D7-4459-875A-6DEF7FB5B006frame6" oryx:anchors="top left" x="0" y="0" width="22" height="4" style="opacity:1;fill:#B3B1B3;fill-opacity:1;" stroke="#000000"/> 		<rect id="_0DCE4D4A-79D7-4459-875A-6DEF7FB5B006frame7" oryx:anchors="top left" x="0" y="4" style="opacity:1;fill:none;" width="22" height="12" stroke="#000000"/> 		<path id="_0DCE4D4A-79D7-4459-875A-6DEF7FB5B006frame8" oryx:anchors="top left" style="opacity:1;fill:none;" d="M 0 10 L 22 10" stroke="#000000"/> 		<path id="_0DCE4D4A-79D7-4459-875A-6DEF7FB5B006frame9" oryx:anchors="top left" style="opacity:1; fill:none;" d="M 7 4 L 7 16" stroke="#000000"/> 	</g> 	 	<g id="_0DCE4D4A-79D7-4459-875A-6DEF7FB5B006scriptTask" transform="scale(0.7,0.7) translate(8,8)" display="none"> 		<path oryx:anchors="top left" id="_0DCE4D4A-79D7-4459-875A-6DEF7FB5B006frame10" style="opacity:1;fill:none;" stroke="#000000" d="M6.402,0.5h14.5c0,0-5.833,2.833-5.833,5.583s4.417,6,4.417,9.167    s-4.167,5.083-4.167,5.083H0.235c0,0,5-2.667,5-5s-4.583-6.75-4.583-9.25S6.402,0.5,6.402,0.5z"/> 		<path oryx:anchors="top left" id="_0DCE4D4A-79D7-4459-875A-6DEF7FB5B006frame11" style="opacity:1;fill:none;stroke-width:1.5" d="M 3.5 4.5 L 13.5 4.5" stroke="#000000"/> 		<path oryx:anchors="top left" id="_0DCE4D4A-79D7-4459-875A-6DEF7FB5B006frame12" style="opacity:1;fill:none;stroke-width:1.5" d="M 3.8 8.5 L 13.8 8.5" stroke="#000000"/> 		<path oryx:anchors="top left" id="_0DCE4D4A-79D7-4459-875A-6DEF7FB5B006frame13" style="opacity:1;fill:none;stroke-width:1.5" d="M 6.3 12.5 L 16.3 12.5" stroke="#000000"/> 		<path oryx:anchors="top left" id="_0DCE4D4A-79D7-4459-875A-6DEF7FB5B006frame14" style="opacity:1;fill:none;stroke-width:1.5" d="M 6.5 16.5 L 16.5 16.5" stroke="#000000"/> 	</g> 	 	<g id="_0DCE4D4A-79D7-4459-875A-6DEF7FB5B006userTask" transform="scale(0.7,0.7) translate(8,8)" display="inherit"> 		<path id="_0DCE4D4A-79D7-4459-875A-6DEF7FB5B006frame15" oryx:anchors="top left" style="opacity:1;fill:#F4F6F7" stroke="#000000" d="M0.585,24.167h24.083v-7.833c0,0-2.333-3.917-7.083-5.167h-9.25    c-4.417,1.333-7.833,5.75-7.833,5.75L0.585,24.167z"/> 		<path id="_0DCE4D4A-79D7-4459-875A-6DEF7FB5B006frame16" oryx:anchors="top left" style="opacity:1;fill:none" d="M 6 20 L 6 24" stroke="#000000"/> 		<path id="_0DCE4D4A-79D7-4459-875A-6DEF7FB5B006frame17" oryx:anchors="top left" style="opacity:1;fill:none" d="M 20 20 L 20 24" stroke="#000000"/> 		<circle id="_0DCE4D4A-79D7-4459-875A-6DEF7FB5B006frame18" oryx:anchors="top left" fill="black" cx="13.002" cy="5.916" r="5.417" stroke="#000000"/> 		<path id="_0DCE4D4A-79D7-4459-875A-6DEF7FB5B006frame19" oryx:anchors="top left" style="opacity:1;fill:#F0EFF0;" stroke="#000000" d="M8.043,7.083c0,0,2.814-2.426,5.376-1.807s4.624-0.693,4.624-0.693    c0.25,1.688,0.042,3.75-1.458,5.584c0,0,1.083,0.75,1.083,1.5s0.125,1.875-1,3s-5.5,1.25-6.75,0S8.668,12.834,8.668,12    s0.583-1.25,1.25-1.917C8.835,9.5,7.419,7.708,8.043,7.083z"/> 	</g> 	 	<g id="_0DCE4D4A-79D7-4459-875A-6DEF7FB5B006serviceTask" transform="scale(0.7,0.7) translate(8,8)" display="none"> 		<polygon oryx:anchors="top left" id="_0DCE4D4A-79D7-4459-875A-6DEF7FB5B006frame20" style="opacity:1;fill:#ffffff" stroke="#000000" points="15.392,5.064 17.954,2.502 20.347,4.895 17.786,7.455     18.729,9.732 22.353,9.732 22.353,13.115 18.731,13.115 17.788,15.392 20.351,17.955 17.958,20.347 15.397,17.786 13.12,18.729     13.12,22.353 9.737,22.353 9.737,18.731 7.46,17.788 4.897,20.35 2.506,17.958 5.066,15.397 4.124,13.12 0.5,13.12 0.5,9.737     4.121,9.737 5.065,7.461 2.503,4.898 4.895,2.506 7.455,5.066 9.732,4.125 9.732,0.5 13.116,0.5 13.116,4.121 "/> 		<circle oryx:anchors="top left" id="_0DCE4D4A-79D7-4459-875A-6DEF7FB5B006frame21" style="opacity:1;fill:none" stroke="#000000" cx="11.427" cy="11.426" r="3.714"/> 		<polygon oryx:anchors="top left" id="_0DCE4D4A-79D7-4459-875A-6DEF7FB5B006frame22" style="opacity:1;fill:#ffffff" stroke="#000000" points="21.392,11.064 23.954,8.502 26.347,10.895 23.786,13.455     24.729,15.732 28.353,15.732 28.353,19.115 24.731,19.115 23.788,21.392 26.351,23.955 23.958,26.347 21.397,23.786 19.12,24.729     19.12,28.353 15.737,28.353 15.737,24.731 13.46,23.788 10.897,26.35 8.506,23.958 11.066,21.397 10.124,19.12 6.5,19.12     6.5,15.737 10.121,15.737 11.065,13.461 8.503,10.898 10.895,8.506 13.455,11.066 15.732,10.125 15.732,6.5 19.116,6.5     19.116,10.121 "/> 		<circle oryx:anchors="top left" id="_0DCE4D4A-79D7-4459-875A-6DEF7FB5B006frame23" style="opacity:1;fill:none;" stroke="#000000" cx="17.427" cy="17.426" r="3.714"/> 	</g> 	 	<g id="_0DCE4D4A-79D7-4459-875A-6DEF7FB5B006sendTask" display="none"> 		<path id="_0DCE4D4A-79D7-4459-875A-6DEF7FB5B006stframe24" oryx:anchors="left top" stroke="#FFFFFF" fill="black" stroke-width="1" d="M8,11 L8,21 L24,21 L24,11 L16,17z"/> 		<path id="_0DCE4D4A-79D7-4459-875A-6DEF7FB5B006stframe25" oryx:anchors="left top" stroke="#FFFFFF" fill="black" stroke-width="1" d="M7,10 L16,17 L25 10z"/> 	</g> 	 	<g id="_0DCE4D4A-79D7-4459-875A-6DEF7FB5B006receiveTask" display="none"> 		<path id="_0DCE4D4A-79D7-4459-875A-6DEF7FB5B006frame26" oryx:anchors="left top" stroke="#000000" fill="none" stroke-width="1" d="M8,11 L8,21 L24,21 L24,11z M8,11 L16,17 L24,11"/> 	</g> 	 	<g id="_0DCE4D4A-79D7-4459-875A-6DEF7FB5B006none" display="inherit"/>  	<g id="_0DCE4D4A-79D7-4459-875A-6DEF7FB5B006sequential" display="none">         <path oryx:anchors="bottom" fill="none" stroke="#000000" stroke-width="2" d="M46,76h10M46,72h10 M46,68h10" id="_0DCE4D4A-79D7-4459-875A-6DEF7FB5B006__0DCE4D4A-79D7-4459-875A-6DEF7FB5B006_20"/>     </g>   </g></g><g class="children" style="overflow:hidden"/><g class="edge"/></g><g class="controls"><g class="dockers"/><g class="magnets" transform="translate(510, 135)"><g pointer-events="all" display="none" transform="translate(-7, 12)"><circle cx="8" cy="8" r="4" stroke="none" fill="red" fill-opacity="0.3"/></g><g pointer-events="all" display="none" transform="translate(-7, 32)"><circle cx="8" cy="8" r="4" stroke="none" fill="red" fill-opacity="0.3"/></g><g pointer-events="all" display="none" transform="translate(-7, 52)"><circle cx="8" cy="8" r="4" stroke="none" fill="red" fill-opacity="0.3"/></g><g pointer-events="all" display="none" transform="translate(17, 71)"><circle cx="8" cy="8" r="4" stroke="none" fill="red" fill-opacity="0.3"/></g><g pointer-events="all" display="none" transform="translate(42, 71)"><circle cx="8" cy="8" r="4" stroke="none" fill="red" fill-opacity="0.3"/></g><g pointer-events="all" display="none" transform="translate(67, 71)"><circle cx="8" cy="8" r="4" stroke="none" fill="red" fill-opacity="0.3"/></g><g pointer-events="all" display="none" transform="translate(91, 12)"><circle cx="8" cy="8" r="4" stroke="none" fill="red" fill-opacity="0.3"/></g><g pointer-events="all" display="none" transform="translate(91, 32)"><circle cx="8" cy="8" r="4" stroke="none" fill="red" fill-opacity="0.3"/></g><g pointer-events="all" display="none" transform="translate(91, 52)"><circle cx="8" cy="8" r="4" stroke="none" fill="red" fill-opacity="0.3"/></g><g pointer-events="all" display="none" transform="translate(17, -7)"><circle cx="8" cy="8" r="4" stroke="none" fill="red" fill-opacity="0.3"/></g><g pointer-events="all" display="none" transform="translate(42, -7)"><circle cx="8" cy="8" r="4" stroke="none" fill="red" fill-opacity="0.3"/></g><g pointer-events="all" display="none" transform="translate(67, -7)"><circle cx="8" cy="8" r="4" stroke="none" fill="red" fill-opacity="0.3"/></g><g pointer-events="all" display="none" transform="translate(42, 32)"><circle cx="8" cy="8" r="4" stroke="none" fill="red" fill-opacity="0.3"/></g></g></g></g><g id="_E239C391-48A5-431E-A863-77B041E60D97" bpmn2nodeid="_4779261A-3533-4990-A7FA-49789EA1EB8A"><g class="stencils" transform="translate(195, 135)"><g class="me"><g pointer-events="fill" oryx:minimumSize="50 40" id="_E239C391-48A5-431E-A863-77B041E60D97">   	<defs id="_E239C391-48A5-431E-A863-77B041E60D97__E239C391-48A5-431E-A863-77B041E60D97_17"> 		<radialGradient id="_E239C391-48A5-431E-A863-77B041E60D97background" cx="10%" cy="10%" r="100%" fx="10%" fy="10%"> 			<stop offset="0%" stop-color="#ffffff" stop-opacity="1" id="_E239C391-48A5-431E-A863-77B041E60D97__E239C391-48A5-431E-A863-77B041E60D97_18"/> 			<stop id="_E239C391-48A5-431E-A863-77B041E60D97fill_el" offset="100%" stop-color="#fafad2" stop-opacity="1"/> 		</radialGradient> 		<radialGradient id="_E239C391-48A5-431E-A863-77B041E60D97borderbackground" cx="10%" cy="10%" r="100%" fx="10%" fy="10%"> 			<stop offset="0%" stop-color="#ffffff" stop-opacity="1" id="_E239C391-48A5-431E-A863-77B041E60D97__E239C391-48A5-431E-A863-77B041E60D97_19"/> 			<stop id="_E239C391-48A5-431E-A863-77B041E60D97fill_border" offset="100%" stop-color="#000000" stop-opacity="1" stroke="#000000"/> 		</radialGradient> 	</defs> 	 	<rect id="_E239C391-48A5-431E-A863-77B041E60D97text_frame" oryx:anchors="bottom top right left" x="1" y="1" width="94" height="79" rx="10" ry="10" stroke="none" stroke-width="0" fill="none"/> 	<rect id="_E239C391-48A5-431E-A863-77B041E60D97bg_frame" oryx:resize="vertical horizontal" x="0" y="0" width="100" height="80" rx="10" ry="10" stroke="#000000" stroke-width="1" fill="url(#_E239C391-48A5-431E-A863-77B041E60D97background) #ffffcc"/> 		<text font-size="12" id="_E239C391-48A5-431E-A863-77B041E60D97text_name" x="50" y="40" oryx:align="middle center" oryx:fittoelem="text_frame" stroke="black" text-anchor="middle" stroke-width="0pt" letter-spacing="-0.01px" fill="#000000" transform="rotate(0 50 40)" visibility="inherit" oryx:fontSize="12"><tspan x="50" y="40" dy="5">User1</tspan></text>     <g id="_E239C391-48A5-431E-A863-77B041E60D97manualTask" transform="scale(0.7,0.7) translate(8,8)" display="none">     	<path oryx:anchors="top left" id="_E239C391-48A5-431E-A863-77B041E60D97frame" style="opacity:1;fill:none;fill-opacity:1;stroke-width:1" d="M0.5,3.751l4.083-3.25c0,0,11.166,0.083,12.083,0.083s-2.417,2.917-1.5,2.917     s11.667,0,12.584,0c1.166,1.708-0.168,3.167-0.834,3.667s0.875,1.917-1,4.417c-0.75,0.25,0.75,1.875-1.333,3.333     c-1.167,0.583,0.583,1.542-1.25,2.833c-1.167,0-20.833,0.083-20.833,0.083l-2-1.333V3.751z" stroke="#000000"/> 		<path id="_E239C391-48A5-431E-A863-77B041E60D97frame2" oryx:anchors="top left" style="opacity:1;fill:none;stroke-width:2" d="M 13.5 7 L 27 7" stroke="#000000"/> 		<path id="_E239C391-48A5-431E-A863-77B041E60D97frame3" oryx:anchors="top left" style="opacity:1;fill:none;stroke-width:2" d="M 13.5 11 L 26 11" stroke="#000000"/> 		<path id="_E239C391-48A5-431E-A863-77B041E60D97frame4" oryx:anchors="top left" style="opacity:1;fill:none;stroke-width:1.5" d="M 14 14.5 L 25 14.5" stroke="#000000"/> 		<path id="_E239C391-48A5-431E-A863-77B041E60D97frame5" oryx:anchors="top left" style="opacity:1;fill:none;stroke-width:1.5" d="M 8.2 3.1 L 15 3.1" stroke="#000000"/> 	</g> 	 	<g id="_E239C391-48A5-431E-A863-77B041E60D97businessRuleTask" transform="scale(0.7,0.7) translate(8,8)" display="none"> 		<rect id="_E239C391-48A5-431E-A863-77B041E60D97frame6" oryx:anchors="top left" x="0" y="0" width="22" height="4" style="opacity:1;fill:#B3B1B3;fill-opacity:1;" stroke="#000000"/> 		<rect id="_E239C391-48A5-431E-A863-77B041E60D97frame7" oryx:anchors="top left" x="0" y="4" style="opacity:1;fill:none;" width="22" height="12" stroke="#000000"/> 		<path id="_E239C391-48A5-431E-A863-77B041E60D97frame8" oryx:anchors="top left" style="opacity:1;fill:none;" d="M 0 10 L 22 10" stroke="#000000"/> 		<path id="_E239C391-48A5-431E-A863-77B041E60D97frame9" oryx:anchors="top left" style="opacity:1; fill:none;" d="M 7 4 L 7 16" stroke="#000000"/> 	</g> 	 	<g id="_E239C391-48A5-431E-A863-77B041E60D97scriptTask" transform="scale(0.7,0.7) translate(8,8)" display="none"> 		<path oryx:anchors="top left" id="_E239C391-48A5-431E-A863-77B041E60D97frame10" style="opacity:1;fill:none;" stroke="#000000" d="M6.402,0.5h14.5c0,0-5.833,2.833-5.833,5.583s4.417,6,4.417,9.167    s-4.167,5.083-4.167,5.083H0.235c0,0,5-2.667,5-5s-4.583-6.75-4.583-9.25S6.402,0.5,6.402,0.5z"/> 		<path oryx:anchors="top left" id="_E239C391-48A5-431E-A863-77B041E60D97frame11" style="opacity:1;fill:none;stroke-width:1.5" d="M 3.5 4.5 L 13.5 4.5" stroke="#000000"/> 		<path oryx:anchors="top left" id="_E239C391-48A5-431E-A863-77B041E60D97frame12" style="opacity:1;fill:none;stroke-width:1.5" d="M 3.8 8.5 L 13.8 8.5" stroke="#000000"/> 		<path oryx:anchors="top left" id="_E239C391-48A5-431E-A863-77B041E60D97frame13" style="opacity:1;fill:none;stroke-width:1.5" d="M 6.3 12.5 L 16.3 12.5" stroke="#000000"/> 		<path oryx:anchors="top left" id="_E239C391-48A5-431E-A863-77B041E60D97frame14" style="opacity:1;fill:none;stroke-width:1.5" d="M 6.5 16.5 L 16.5 16.5" stroke="#000000"/> 	</g> 	 	<g id="_E239C391-48A5-431E-A863-77B041E60D97userTask" transform="scale(0.7,0.7) translate(8,8)" display="inherit"> 		<path id="_E239C391-48A5-431E-A863-77B041E60D97frame15" oryx:anchors="top left" style="opacity:1;fill:#F4F6F7" stroke="#000000" d="M0.585,24.167h24.083v-7.833c0,0-2.333-3.917-7.083-5.167h-9.25    c-4.417,1.333-7.833,5.75-7.833,5.75L0.585,24.167z"/> 		<path id="_E239C391-48A5-431E-A863-77B041E60D97frame16" oryx:anchors="top left" style="opacity:1;fill:none" d="M 6 20 L 6 24" stroke="#000000"/> 		<path id="_E239C391-48A5-431E-A863-77B041E60D97frame17" oryx:anchors="top left" style="opacity:1;fill:none" d="M 20 20 L 20 24" stroke="#000000"/> 		<circle id="_E239C391-48A5-431E-A863-77B041E60D97frame18" oryx:anchors="top left" fill="black" cx="13.002" cy="5.916" r="5.417" stroke="#000000"/> 		<path id="_E239C391-48A5-431E-A863-77B041E60D97frame19" oryx:anchors="top left" style="opacity:1;fill:#F0EFF0;" stroke="#000000" d="M8.043,7.083c0,0,2.814-2.426,5.376-1.807s4.624-0.693,4.624-0.693    c0.25,1.688,0.042,3.75-1.458,5.584c0,0,1.083,0.75,1.083,1.5s0.125,1.875-1,3s-5.5,1.25-6.75,0S8.668,12.834,8.668,12    s0.583-1.25,1.25-1.917C8.835,9.5,7.419,7.708,8.043,7.083z"/> 	</g> 	 	<g id="_E239C391-48A5-431E-A863-77B041E60D97serviceTask" transform="scale(0.7,0.7) translate(8,8)" display="none"> 		<polygon oryx:anchors="top left" id="_E239C391-48A5-431E-A863-77B041E60D97frame20" style="opacity:1;fill:#ffffff" stroke="#000000" points="15.392,5.064 17.954,2.502 20.347,4.895 17.786,7.455     18.729,9.732 22.353,9.732 22.353,13.115 18.731,13.115 17.788,15.392 20.351,17.955 17.958,20.347 15.397,17.786 13.12,18.729     13.12,22.353 9.737,22.353 9.737,18.731 7.46,17.788 4.897,20.35 2.506,17.958 5.066,15.397 4.124,13.12 0.5,13.12 0.5,9.737     4.121,9.737 5.065,7.461 2.503,4.898 4.895,2.506 7.455,5.066 9.732,4.125 9.732,0.5 13.116,0.5 13.116,4.121 "/> 		<circle oryx:anchors="top left" id="_E239C391-48A5-431E-A863-77B041E60D97frame21" style="opacity:1;fill:none" stroke="#000000" cx="11.427" cy="11.426" r="3.714"/> 		<polygon oryx:anchors="top left" id="_E239C391-48A5-431E-A863-77B041E60D97frame22" style="opacity:1;fill:#ffffff" stroke="#000000" points="21.392,11.064 23.954,8.502 26.347,10.895 23.786,13.455     24.729,15.732 28.353,15.732 28.353,19.115 24.731,19.115 23.788,21.392 26.351,23.955 23.958,26.347 21.397,23.786 19.12,24.729     19.12,28.353 15.737,28.353 15.737,24.731 13.46,23.788 10.897,26.35 8.506,23.958 11.066,21.397 10.124,19.12 6.5,19.12     6.5,15.737 10.121,15.737 11.065,13.461 8.503,10.898 10.895,8.506 13.455,11.066 15.732,10.125 15.732,6.5 19.116,6.5     19.116,10.121 "/> 		<circle oryx:anchors="top left" id="_E239C391-48A5-431E-A863-77B041E60D97frame23" style="opacity:1;fill:none;" stroke="#000000" cx="17.427" cy="17.426" r="3.714"/> 	</g> 	 	<g id="_E239C391-48A5-431E-A863-77B041E60D97sendTask" display="none"> 		<path id="_E239C391-48A5-431E-A863-77B041E60D97stframe24" oryx:anchors="left top" stroke="#FFFFFF" fill="black" stroke-width="1" d="M8,11 L8,21 L24,21 L24,11 L16,17z"/> 		<path id="_E239C391-48A5-431E-A863-77B041E60D97stframe25" oryx:anchors="left top" stroke="#FFFFFF" fill="black" stroke-width="1" d="M7,10 L16,17 L25 10z"/> 	</g> 	 	<g id="_E239C391-48A5-431E-A863-77B041E60D97receiveTask" display="none"> 		<path id="_E239C391-48A5-431E-A863-77B041E60D97frame26" oryx:anchors="left top" stroke="#000000" fill="none" stroke-width="1" d="M8,11 L8,21 L24,21 L24,11z M8,11 L16,17 L24,11"/> 	</g> 	 	<g id="_E239C391-48A5-431E-A863-77B041E60D97none" display="inherit"/>  	<g id="_E239C391-48A5-431E-A863-77B041E60D97sequential" display="none">         <path oryx:anchors="bottom" fill="none" stroke="#000000" stroke-width="2" d="M46,76h10M46,72h10 M46,68h10" id="_E239C391-48A5-431E-A863-77B041E60D97__E239C391-48A5-431E-A863-77B041E60D97_20"/>     </g>   </g></g><g class="children" style="overflow:hidden"/><g class="edge"/></g><g class="controls"><g class="dockers"/><g class="magnets" transform="translate(195, 135)"><g pointer-events="all" display="none" transform="translate(-7, 12)"><circle cx="8" cy="8" r="4" stroke="none" fill="red" fill-opacity="0.3"/></g><g pointer-events="all" display="none" transform="translate(-7, 32)"><circle cx="8" cy="8" r="4" stroke="none" fill="red" fill-opacity="0.3"/></g><g pointer-events="all" display="none" transform="translate(-7, 52)"><circle cx="8" cy="8" r="4" stroke="none" fill="red" fill-opacity="0.3"/></g><g pointer-events="all" display="none" transform="translate(17, 71)"><circle cx="8" cy="8" r="4" stroke="none" fill="red" fill-opacity="0.3"/></g><g pointer-events="all" display="none" transform="translate(42, 71)"><circle cx="8" cy="8" r="4" stroke="none" fill="red" fill-opacity="0.3"/></g><g pointer-events="all" display="none" transform="translate(67, 71)"><circle cx="8" cy="8" r="4" stroke="none" fill="red" fill-opacity="0.3"/></g><g pointer-events="all" display="none" transform="translate(91, 12)"><circle cx="8" cy="8" r="4" stroke="none" fill="red" fill-opacity="0.3"/></g><g pointer-events="all" display="none" transform="translate(91, 32)"><circle cx="8" cy="8" r="4" stroke="none" fill="red" fill-opacity="0.3"/></g><g pointer-events="all" display="none" transform="translate(91, 52)"><circle cx="8" cy="8" r="4" stroke="none" fill="red" fill-opacity="0.3"/></g><g pointer-events="all" display="none" transform="translate(17, -7)"><circle cx="8" cy="8" r="4" stroke="none" fill="red" fill-opacity="0.3"/></g><g pointer-events="all" display="none" transform="translate(42, -7)"><circle cx="8" cy="8" r="4" stroke="none" fill="red" fill-opacity="0.3"/></g><g pointer-events="all" display="none" transform="translate(67, -7)"><circle cx="8" cy="8" r="4" stroke="none" fill="red" fill-opacity="0.3"/></g><g pointer-events="all" display="none" transform="translate(42, 32)"><circle cx="8" cy="8" r="4" stroke="none" fill="red" fill-opacity="0.3"/></g></g></g></g><g id="_4F90A411-782F-4069-9F05-13BD625ADAD6" bpmn2nodeid="_468E1C5C-B426-4B2C-86AE-5AF861C70867"><g class="stencils" transform="translate(705, 161)"><g class="me"><g pointer-events="fill" id="_4F90A411-782F-4069-9F05-13BD625ADAD6">      <defs id="_4F90A411-782F-4069-9F05-13BD625ADAD6__4F90A411-782F-4069-9F05-13BD625ADAD6_5"> 		<radialGradient id="_4F90A411-782F-4069-9F05-13BD625ADAD6background" cx="10%" cy="10%" r="100%" fx="10%" fy="10%"> 			<stop offset="0%" stop-color="#ffffff" stop-opacity="1" id="_4F90A411-782F-4069-9F05-13BD625ADAD6__4F90A411-782F-4069-9F05-13BD625ADAD6_6"/> 			<stop id="_4F90A411-782F-4069-9F05-13BD625ADAD6fill_el" offset="100%" stop-color="#ff6347" stop-opacity="1"/> 		</radialGradient> 	</defs> 	     <circle id="_4F90A411-782F-4069-9F05-13BD625ADAD6bg_frame" cx="14" cy="14" r="14" stroke="#000000" fill="url(#_4F90A411-782F-4069-9F05-13BD625ADAD6background) white" stroke-width="3"/> 	<text font-size="11" id="_4F90A411-782F-4069-9F05-13BD625ADAD6text_name" x="14" y="30" oryx:align="top center" stroke="black" stroke-width="0pt" letter-spacing="-0.01px" fill="#000000" text-anchor="middle" transform="rotate(0 14 30)" visibility="inherit" oryx:fontSize="11"/>   </g></g><g class="children" style="overflow:hidden"/><g class="edge"/></g><g class="controls"><g class="dockers"/><g class="magnets" transform="translate(705, 161)"><g pointer-events="all" display="none" transform="translate(6, 6)"><circle cx="8" cy="8" r="4" stroke="none" fill="red" fill-opacity="0.3"/></g></g></g></g><g id="_113B1D91-C989-4E90-B6DB-2BDBE7F88257" bpmn2nodeid="_BB84C8D4-F8BF-4B0D-8690-51386261B685"><g class="stencils" transform="translate(340, 135)"><g class="me"><g pointer-events="fill" oryx:minimumSize="50 40" id="_113B1D91-C989-4E90-B6DB-2BDBE7F88257">   	<defs id="_113B1D91-C989-4E90-B6DB-2BDBE7F88257__113B1D91-C989-4E90-B6DB-2BDBE7F88257_17"> 		<radialGradient id="_113B1D91-C989-4E90-B6DB-2BDBE7F88257background" cx="10%" cy="10%" r="100%" fx="10%" fy="10%"> 			<stop offset="0%" stop-color="#ffffff" stop-opacity="1" id="_113B1D91-C989-4E90-B6DB-2BDBE7F88257__113B1D91-C989-4E90-B6DB-2BDBE7F88257_18"/> 			<stop id="_113B1D91-C989-4E90-B6DB-2BDBE7F88257fill_el" offset="100%" stop-color="#fafad2" stop-opacity="1"/> 		</radialGradient> 		<radialGradient id="_113B1D91-C989-4E90-B6DB-2BDBE7F88257borderbackground" cx="10%" cy="10%" r="100%" fx="10%" fy="10%"> 			<stop offset="0%" stop-color="#ffffff" stop-opacity="1" id="_113B1D91-C989-4E90-B6DB-2BDBE7F88257__113B1D91-C989-4E90-B6DB-2BDBE7F88257_19"/> 			<stop id="_113B1D91-C989-4E90-B6DB-2BDBE7F88257fill_border" offset="100%" stop-color="#000000" stop-opacity="1" stroke="#000000"/> 		</radialGradient> 	</defs> 	 	<rect id="_113B1D91-C989-4E90-B6DB-2BDBE7F88257text_frame" oryx:anchors="bottom top right left" x="1" y="1" width="94" height="79" rx="10" ry="10" stroke="none" stroke-width="0" fill="none"/> 	<rect id="_113B1D91-C989-4E90-B6DB-2BDBE7F88257bg_frame" oryx:resize="vertical horizontal" x="0" y="0" width="100" height="80" rx="10" ry="10" stroke="#000000" stroke-width="1" fill="url(#_113B1D91-C989-4E90-B6DB-2BDBE7F88257background) #ffffcc"/> 		<text font-size="12" id="_113B1D91-C989-4E90-B6DB-2BDBE7F88257text_name" x="50" y="40" oryx:align="middle center" oryx:fittoelem="text_frame" stroke="black" text-anchor="middle" stroke-width="0pt" letter-spacing="-0.01px" fill="#000000" transform="rotate(0 50 40)" visibility="inherit" oryx:fontSize="12"><tspan x="50" y="40" dy="5">script</tspan></text>     <g id="_113B1D91-C989-4E90-B6DB-2BDBE7F88257manualTask" transform="scale(0.7,0.7) translate(8,8)" display="none">     	<path oryx:anchors="top left" id="_113B1D91-C989-4E90-B6DB-2BDBE7F88257frame" style="opacity:1;fill:none;fill-opacity:1;stroke-width:1" d="M0.5,3.751l4.083-3.25c0,0,11.166,0.083,12.083,0.083s-2.417,2.917-1.5,2.917     s11.667,0,12.584,0c1.166,1.708-0.168,3.167-0.834,3.667s0.875,1.917-1,4.417c-0.75,0.25,0.75,1.875-1.333,3.333     c-1.167,0.583,0.583,1.542-1.25,2.833c-1.167,0-20.833,0.083-20.833,0.083l-2-1.333V3.751z" stroke="#000000"/> 		<path id="_113B1D91-C989-4E90-B6DB-2BDBE7F88257frame2" oryx:anchors="top left" style="opacity:1;fill:none;stroke-width:2" d="M 13.5 7 L 27 7" stroke="#000000"/> 		<path id="_113B1D91-C989-4E90-B6DB-2BDBE7F88257frame3" oryx:anchors="top left" style="opacity:1;fill:none;stroke-width:2" d="M 13.5 11 L 26 11" stroke="#000000"/> 		<path id="_113B1D91-C989-4E90-B6DB-2BDBE7F88257frame4" oryx:anchors="top left" style="opacity:1;fill:none;stroke-width:1.5" d="M 14 14.5 L 25 14.5" stroke="#000000"/> 		<path id="_113B1D91-C989-4E90-B6DB-2BDBE7F88257frame5" oryx:anchors="top left" style="opacity:1;fill:none;stroke-width:1.5" d="M 8.2 3.1 L 15 3.1" stroke="#000000"/> 	</g> 	 	<g id="_113B1D91-C989-4E90-B6DB-2BDBE7F88257businessRuleTask" transform="scale(0.7,0.7) translate(8,8)" display="none"> 		<rect id="_113B1D91-C989-4E90-B6DB-2BDBE7F88257frame6" oryx:anchors="top left" x="0" y="0" width="22" height="4" style="opacity:1;fill:#B3B1B3;fill-opacity:1;" stroke="#000000"/> 		<rect id="_113B1D91-C989-4E90-B6DB-2BDBE7F88257frame7" oryx:anchors="top left" x="0" y="4" style="opacity:1;fill:none;" width="22" height="12" stroke="#000000"/> 		<path id="_113B1D91-C989-4E90-B6DB-2BDBE7F88257frame8" oryx:anchors="top left" style="opacity:1;fill:none;" d="M 0 10 L 22 10" stroke="#000000"/> 		<path id="_113B1D91-C989-4E90-B6DB-2BDBE7F88257frame9" oryx:anchors="top left" style="opacity:1; fill:none;" d="M 7 4 L 7 16" stroke="#000000"/> 	</g> 	 	<g id="_113B1D91-C989-4E90-B6DB-2BDBE7F88257scriptTask" transform="scale(0.7,0.7) translate(8,8)" display="inherit"> 		<path oryx:anchors="top left" id="_113B1D91-C989-4E90-B6DB-2BDBE7F88257frame10" style="opacity:1;fill:none;" stroke="#000000" d="M6.402,0.5h14.5c0,0-5.833,2.833-5.833,5.583s4.417,6,4.417,9.167    s-4.167,5.083-4.167,5.083H0.235c0,0,5-2.667,5-5s-4.583-6.75-4.583-9.25S6.402,0.5,6.402,0.5z"/> 		<path oryx:anchors="top left" id="_113B1D91-C989-4E90-B6DB-2BDBE7F88257frame11" style="opacity:1;fill:none;stroke-width:1.5" d="M 3.5 4.5 L 13.5 4.5" stroke="#000000"/> 		<path oryx:anchors="top left" id="_113B1D91-C989-4E90-B6DB-2BDBE7F88257frame12" style="opacity:1;fill:none;stroke-width:1.5" d="M 3.8 8.5 L 13.8 8.5" stroke="#000000"/> 		<path oryx:anchors="top left" id="_113B1D91-C989-4E90-B6DB-2BDBE7F88257frame13" style="opacity:1;fill:none;stroke-width:1.5" d="M 6.3 12.5 L 16.3 12.5" stroke="#000000"/> 		<path oryx:anchors="top left" id="_113B1D91-C989-4E90-B6DB-2BDBE7F88257frame14" style="opacity:1;fill:none;stroke-width:1.5" d="M 6.5 16.5 L 16.5 16.5" stroke="#000000"/> 	</g> 	 	<g id="_113B1D91-C989-4E90-B6DB-2BDBE7F88257userTask" transform="scale(0.7,0.7) translate(8,8)" display="none"> 		<path id="_113B1D91-C989-4E90-B6DB-2BDBE7F88257frame15" oryx:anchors="top left" style="opacity:1;fill:#F4F6F7" stroke="#000000" d="M0.585,24.167h24.083v-7.833c0,0-2.333-3.917-7.083-5.167h-9.25    c-4.417,1.333-7.833,5.75-7.833,5.75L0.585,24.167z"/> 		<path id="_113B1D91-C989-4E90-B6DB-2BDBE7F88257frame16" oryx:anchors="top left" style="opacity:1;fill:none" d="M 6 20 L 6 24" stroke="#000000"/> 		<path id="_113B1D91-C989-4E90-B6DB-2BDBE7F88257frame17" oryx:anchors="top left" style="opacity:1;fill:none" d="M 20 20 L 20 24" stroke="#000000"/> 		<circle id="_113B1D91-C989-4E90-B6DB-2BDBE7F88257frame18" oryx:anchors="top left" fill="black" cx="13.002" cy="5.916" r="5.417" stroke="#000000"/> 		<path id="_113B1D91-C989-4E90-B6DB-2BDBE7F88257frame19" oryx:anchors="top left" style="opacity:1;fill:#F0EFF0;" stroke="#000000" d="M8.043,7.083c0,0,2.814-2.426,5.376-1.807s4.624-0.693,4.624-0.693    c0.25,1.688,0.042,3.75-1.458,5.584c0,0,1.083,0.75,1.083,1.5s0.125,1.875-1,3s-5.5,1.25-6.75,0S8.668,12.834,8.668,12    s0.583-1.25,1.25-1.917C8.835,9.5,7.419,7.708,8.043,7.083z"/> 	</g> 	 	<g id="_113B1D91-C989-4E90-B6DB-2BDBE7F88257serviceTask" transform="scale(0.7,0.7) translate(8,8)" display="none"> 		<polygon oryx:anchors="top left" id="_113B1D91-C989-4E90-B6DB-2BDBE7F88257frame20" style="opacity:1;fill:#ffffff" stroke="#000000" points="15.392,5.064 17.954,2.502 20.347,4.895 17.786,7.455     18.729,9.732 22.353,9.732 22.353,13.115 18.731,13.115 17.788,15.392 20.351,17.955 17.958,20.347 15.397,17.786 13.12,18.729     13.12,22.353 9.737,22.353 9.737,18.731 7.46,17.788 4.897,20.35 2.506,17.958 5.066,15.397 4.124,13.12 0.5,13.12 0.5,9.737     4.121,9.737 5.065,7.461 2.503,4.898 4.895,2.506 7.455,5.066 9.732,4.125 9.732,0.5 13.116,0.5 13.116,4.121 "/> 		<circle oryx:anchors="top left" id="_113B1D91-C989-4E90-B6DB-2BDBE7F88257frame21" style="opacity:1;fill:none" stroke="#000000" cx="11.427" cy="11.426" r="3.714"/> 		<polygon oryx:anchors="top left" id="_113B1D91-C989-4E90-B6DB-2BDBE7F88257frame22" style="opacity:1;fill:#ffffff" stroke="#000000" points="21.392,11.064 23.954,8.502 26.347,10.895 23.786,13.455     24.729,15.732 28.353,15.732 28.353,19.115 24.731,19.115 23.788,21.392 26.351,23.955 23.958,26.347 21.397,23.786 19.12,24.729     19.12,28.353 15.737,28.353 15.737,24.731 13.46,23.788 10.897,26.35 8.506,23.958 11.066,21.397 10.124,19.12 6.5,19.12     6.5,15.737 10.121,15.737 11.065,13.461 8.503,10.898 10.895,8.506 13.455,11.066 15.732,10.125 15.732,6.5 19.116,6.5     19.116,10.121 "/> 		<circle oryx:anchors="top left" id="_113B1D91-C989-4E90-B6DB-2BDBE7F88257frame23" style="opacity:1;fill:none;" stroke="#000000" cx="17.427" cy="17.426" r="3.714"/> 	</g> 	 	<g id="_113B1D91-C989-4E90-B6DB-2BDBE7F88257sendTask" display="none"> 		<path id="_113B1D91-C989-4E90-B6DB-2BDBE7F88257stframe24" oryx:anchors="left top" stroke="#FFFFFF" fill="black" stroke-width="1" d="M8,11 L8,21 L24,21 L24,11 L16,17z"/> 		<path id="_113B1D91-C989-4E90-B6DB-2BDBE7F88257stframe25" oryx:anchors="left top" stroke="#FFFFFF" fill="black" stroke-width="1" d="M7,10 L16,17 L25 10z"/> 	</g> 	 	<g id="_113B1D91-C989-4E90-B6DB-2BDBE7F88257receiveTask" display="none"> 		<path id="_113B1D91-C989-4E90-B6DB-2BDBE7F88257frame26" oryx:anchors="left top" stroke="#000000" fill="none" stroke-width="1" d="M8,11 L8,21 L24,21 L24,11z M8,11 L16,17 L24,11"/> 	</g> 	 	<g id="_113B1D91-C989-4E90-B6DB-2BDBE7F88257none" display="inherit"/>  	<g id="_113B1D91-C989-4E90-B6DB-2BDBE7F88257sequential" display="none">         <path oryx:anchors="bottom" fill="none" stroke="#000000" stroke-width="2" d="M46,76h10M46,72h10 M46,68h10" id="_113B1D91-C989-4E90-B6DB-2BDBE7F88257__113B1D91-C989-4E90-B6DB-2BDBE7F88257_20"/>     </g>   </g></g><g class="children" style="overflow:hidden"/><g class="edge"/></g><g class="controls"><g class="dockers"/><g class="magnets" transform="translate(340, 135)"><g pointer-events="all" display="none" transform="translate(-7, 12)"><circle cx="8" cy="8" r="4" stroke="none" fill="red" fill-opacity="0.3"/></g><g pointer-events="all" display="none" transform="translate(-7, 32)"><circle cx="8" cy="8" r="4" stroke="none" fill="red" fill-opacity="0.3"/></g><g pointer-events="all" display="none" transform="translate(-7, 52)"><circle cx="8" cy="8" r="4" stroke="none" fill="red" fill-opacity="0.3"/></g><g pointer-events="all" display="none" transform="translate(17, 71)"><circle cx="8" cy="8" r="4" stroke="none" fill="red" fill-opacity="0.3"/></g><g pointer-events="all" display="none" transform="translate(42, 71)"><circle cx="8" cy="8" r="4" stroke="none" fill="red" fill-opacity="0.3"/></g><g pointer-events="all" display="none" transform="translate(67, 71)"><circle cx="8" cy="8" r="4" stroke="none" fill="red" fill-opacity="0.3"/></g><g pointer-events="all" display="none" transform="translate(91, 12)"><circle cx="8" cy="8" r="4" stroke="none" fill="red" fill-opacity="0.3"/></g><g pointer-events="all" display="none" transform="translate(91, 32)"><circle cx="8" cy="8" r="4" stroke="none" fill="red" fill-opacity="0.3"/></g><g pointer-events="all" display="none" transform="translate(91, 52)"><circle cx="8" cy="8" r="4" stroke="none" fill="red" fill-opacity="0.3"/></g><g pointer-events="all" display="none" transform="translate(17, -7)"><circle cx="8" cy="8" r="4" stroke="none" fill="red" fill-opacity="0.3"/></g><g pointer-events="all" display="none" transform="translate(42, -7)"><circle cx="8" cy="8" r="4" stroke="none" fill="red" fill-opacity="0.3"/></g><g pointer-events="all" display="none" transform="translate(67, -7)"><circle cx="8" cy="8" r="4" stroke="none" fill="red" fill-opacity="0.3"/></g><g pointer-events="all" display="none" transform="translate(42, 32)"><circle cx="8" cy="8" r="4" stroke="none" fill="red" fill-opacity="0.3"/></g></g></g></g></g><g class="edge"><g id="_BFFBEABD-D73C-48E6-B457-8703F66DD60C" bpmn2nodeid="_828F9C77-3C74-43BF-9248-1A72C295EFF3"><g class="stencils"><g class="me"><g pointer-events="painted" bpmn2nodeid="_2FA5AE23-780C-46BB-A6FD-C6997F597354"><path id="_BFFBEABD-D73C-48E6-B457-8703F66DD60C_1" d="M150.6083435402103 179.29052983908136L194.1572814597897 177.31103266091864 " stroke="#000000" fill="none" stroke-width="2" stroke-linecap="round" stroke-linejoin="round" marker-start="url(#_BFFBEABD-D73C-48E6-B457-8703F66DD60Cstart)" marker-end="url(#_BFFBEABD-D73C-48E6-B457-8703F66DD60Cend)"/></g><text id="_BFFBEABD-D73C-48E6-B457-8703F66DD60Ctext_name" font-size="12" x="164.6083435402103" y="165.29052983908136" oryx:edgePosition="startTop" stroke-width="0pt" letter-spacing="-0.01px" fill="#000000" text-anchor="start" transform="rotate(357.3974377975002 150.6083435402103 179.29052983908136)" visibility="inherit" oryx:fontSize="12"/></g><g class="children" style="overflow:hidden"/><g class="edge"/></g><g class="controls"><g class="dockers"/><g class="magnets"/></g></g><g id="_A1D87AA4-78BF-41CC-A92C-EE0F9AFB1228" bpmn2nodeid="_016C02A4-3128-4101-BF7B-283F751DEFED"><g class="stencils"><g class="me"><g pointer-events="painted" bpmn2nodeid="_77E0E94E-2054-4C5A-ADD6-DC4E4DD95F60"><path id="_A1D87AA4-78BF-41CC-A92C-EE0F9AFB1228_1" d="M610.6875 175L704.3359375 175 " stroke="#000000" fill="none" stroke-width="2" stroke-linecap="round" stroke-linejoin="round" marker-start="url(#_A1D87AA4-78BF-41CC-A92C-EE0F9AFB1228start)" marker-end="url(#_A1D87AA4-78BF-41CC-A92C-EE0F9AFB1228end)"/></g><text id="_A1D87AA4-78BF-41CC-A92C-EE0F9AFB1228text_name" font-size="12" x="624.6875" y="161" oryx:edgePosition="startTop" stroke-width="0pt" letter-spacing="-0.01px" fill="#000000" text-anchor="start" transform="rotate(360 610.6875 175)" visibility="inherit" oryx:fontSize="12"/></g><g class="children" style="overflow:hidden"/><g class="edge"/></g><g class="controls"><g class="dockers"/><g class="magnets"/></g></g><g id="_EFB52BC1-4687-438F-85F7-CE96E135E433" bpmn2nodeid="_EB886D7F-B9DE-4777-8503-0590949F88FD"><g class="stencils"><g class="me"><g pointer-events="painted" bpmn2nodeid="_9B70C8E6-499C-4CA0-BF81-7E8EE8CEE8E5"><path id="_EFB52BC1-4687-438F-85F7-CE96E135E433_1" d="M295.84375 175L339.15625 175 " stroke="#000000" fill="none" stroke-width="2" stroke-linecap="round" stroke-linejoin="round" marker-start="url(#_EFB52BC1-4687-438F-85F7-CE96E135E433start)" marker-end="url(#_EFB52BC1-4687-438F-85F7-CE96E135E433end)"/></g><text id="_EFB52BC1-4687-438F-85F7-CE96E135E433text_name" font-size="12" x="309.84375" y="161" oryx:edgePosition="startTop" stroke-width="0pt" letter-spacing="-0.01px" fill="#000000" text-anchor="start" transform="rotate(360 295.84375 175)" visibility="inherit" oryx:fontSize="12"/></g><g class="children" style="overflow:hidden"/><g class="edge"/></g><g class="controls"><g class="dockers"/><g class="magnets"/></g></g><g id="_0694D6BF-AAA1-48DF-AF03-3E68F54219B3" bpmn2nodeid="_41A8AA0F-1CC5-4F57-B84B-D47BB62A2022"><g class="stencils"><g class="me"><g pointer-events="painted" bpmn2nodeid="_34A46643-16D9-4FA9-B862-E5397A853CF7"><path id="_0694D6BF-AAA1-48DF-AF03-3E68F54219B3_1" d="M440.140625 175L509.859375 175 " stroke="#000000" fill="none" stroke-width="2" stroke-linecap="round" stroke-linejoin="round" marker-start="url(#_0694D6BF-AAA1-48DF-AF03-3E68F54219B3start)" marker-end="url(#_0694D6BF-AAA1-48DF-AF03-3E68F54219B3end)"/></g><text id="_0694D6BF-AAA1-48DF-AF03-3E68F54219B3text_name" font-size="12" x="454.140625" y="161" oryx:edgePosition="startTop" stroke-width="0pt" letter-spacing="-0.01px" fill="#000000" text-anchor="start" transform="rotate(360 440.140625 175)" visibility="inherit" oryx:fontSize="12"/></g><g class="children" style="overflow:hidden"/><g class="edge"/></g><g class="controls"><g class="dockers"/><g class="magnets"/></g></g></g><text id="_64601F2E-F24D-4DEE-8469-5A7AE1F5AEE9" style="stroke-width:1;fill:rgb(177,194,214);font-family:arial;font-weight:bold" font-size="12" onclick="ORYX.Plugins.CanvasTitle.openTextualAnalysis()" onmouseover="ORYX.Plugins.CanvasTitle.addToolTip('_64601F2E-F24D-4DEE-8469-5A7AE1F5AEE9')" transform="translate(10, 20)">Template v.1.0 (TTS_Connected_Claims(2).Template)</text></g></g></svg>